<svg width="240" height="240" viewBox="0 0 240 240" fill="none" xmlns="http://www.w3.org/2000/svg">
<rect width="240" height="240" rx="32" fill="#0E464F"/>
<rect x="2" y="2" width="236" height="236" rx="30" stroke="#24A0B5" stroke-opacity="0.5" stroke-width="4" style="mix-blend-mode:plus-lighter"/>
<path d="M129.264 86.816C128.681 82.2267 124.751 78.6667 120.005 78.6667C116.331 78.6667 113.139 80.8147 111.681 84.2C108.817 85.056 106.672 87.76 106.672 90.6667C106.672 94.3427 109.663 97.3334 113.339 97.3334H114.672V94.6667H113.339C111.133 94.6667 109.339 92.872 109.339 90.6667C109.339 88.7947 110.937 86.9907 112.903 86.6454L113.677 86.5094L113.933 85.7654C114.871 83.0307 117.197 81.3334 120.005 81.3334C123.681 81.3334 126.672 84.324 126.672 88V89.3334H128.005C129.476 89.3334 130.672 90.5294 130.672 92C130.672 93.4707 129.476 94.6667 128.005 94.6667H125.339V97.3334H128.005C130.947 97.3334 133.339 94.9414 133.339 92C133.337 90.8047 132.935 89.6444 132.196 88.7047C131.457 87.7649 130.425 87.0999 129.264 86.816Z" fill="#FAFAFA"/>
<path d="M121.339 90.6667V85.3334H118.672V90.6667H114.672L120.005 97.3334L125.339 90.6667H121.339Z" fill="#FAFAFA"/>
<path d="M45.9531 137H43.5781L43.5938 135.773H45.9531C46.7656 135.773 47.4427 135.604 47.9844 135.266C48.526 134.922 48.9323 134.443 49.2031 133.828C49.4792 133.208 49.6172 132.484 49.6172 131.656V130.961C49.6172 130.31 49.5391 129.732 49.3828 129.227C49.2266 128.716 48.9974 128.286 48.6953 127.938C48.3932 127.583 48.0234 127.315 47.5859 127.133C47.1536 126.951 46.6562 126.859 46.0938 126.859H43.5312V125.625H46.0938C46.8385 125.625 47.5182 125.75 48.1328 126C48.7474 126.245 49.276 126.602 49.7188 127.07C50.1667 127.534 50.5104 128.096 50.75 128.758C50.9896 129.414 51.1094 130.154 51.1094 130.977V131.656C51.1094 132.479 50.9896 133.221 50.75 133.883C50.5104 134.539 50.1641 135.099 49.7109 135.562C49.263 136.026 48.7214 136.383 48.0859 136.633C47.4557 136.878 46.7448 137 45.9531 137ZM44.3828 125.625V137H42.875V125.625H44.3828ZM54.6016 129.875V137H53.1562V128.547H54.5625L54.6016 129.875ZM57.2422 128.5L57.2344 129.844C57.1146 129.818 57 129.802 56.8906 129.797C56.7865 129.786 56.6667 129.781 56.5312 129.781C56.1979 129.781 55.9036 129.833 55.6484 129.938C55.3932 130.042 55.1771 130.188 55 130.375C54.8229 130.562 54.6823 130.786 54.5781 131.047C54.4792 131.302 54.4141 131.583 54.3828 131.891L53.9766 132.125C53.9766 131.615 54.026 131.135 54.125 130.688C54.2292 130.24 54.388 129.844 54.6016 129.5C54.8151 129.151 55.0859 128.88 55.4141 128.688C55.7474 128.49 56.1432 128.391 56.6016 128.391C56.7057 128.391 56.8255 128.404 56.9609 128.43C57.0964 128.451 57.1901 128.474 57.2422 128.5ZM63.25 135.555V131.203C63.25 130.87 63.1823 130.581 63.0469 130.336C62.9167 130.086 62.7188 129.893 62.4531 129.758C62.1875 129.622 61.8594 129.555 61.4688 129.555C61.1042 129.555 60.7839 129.617 60.5078 129.742C60.237 129.867 60.0234 130.031 59.8672 130.234C59.7161 130.438 59.6406 130.656 59.6406 130.891H58.1953C58.1953 130.589 58.2734 130.289 58.4297 129.992C58.5859 129.695 58.8099 129.427 59.1016 129.188C59.3984 128.943 59.7526 128.75 60.1641 128.609C60.5807 128.464 61.0443 128.391 61.5547 128.391C62.1693 128.391 62.7109 128.495 63.1797 128.703C63.6536 128.911 64.0234 129.227 64.2891 129.648C64.5599 130.065 64.6953 130.589 64.6953 131.219V135.156C64.6953 135.438 64.7188 135.737 64.7656 136.055C64.8177 136.372 64.8932 136.646 64.9922 136.875V137H63.4844C63.4115 136.833 63.3542 136.612 63.3125 136.336C63.2708 136.055 63.25 135.794 63.25 135.555ZM63.5 131.875L63.5156 132.891H62.0547C61.6432 132.891 61.276 132.924 60.9531 132.992C60.6302 133.055 60.3594 133.151 60.1406 133.281C59.9219 133.411 59.7552 133.576 59.6406 133.773C59.526 133.966 59.4688 134.193 59.4688 134.453C59.4688 134.719 59.5286 134.961 59.6484 135.18C59.7682 135.398 59.9479 135.573 60.1875 135.703C60.4323 135.828 60.7318 135.891 61.0859 135.891C61.5286 135.891 61.9193 135.797 62.2578 135.609C62.5964 135.422 62.8646 135.193 63.0625 134.922C63.2656 134.651 63.375 134.388 63.3906 134.133L64.0078 134.828C63.9714 135.047 63.8724 135.289 63.7109 135.555C63.5495 135.82 63.3333 136.076 63.0625 136.32C62.7969 136.56 62.4792 136.76 62.1094 136.922C61.7448 137.078 61.3333 137.156 60.875 137.156C60.3021 137.156 59.7995 137.044 59.3672 136.82C58.9401 136.596 58.6068 136.297 58.3672 135.922C58.1328 135.542 58.0156 135.117 58.0156 134.648C58.0156 134.195 58.1042 133.797 58.2812 133.453C58.4583 133.104 58.7135 132.815 59.0469 132.586C59.3802 132.352 59.7812 132.174 60.25 132.055C60.7188 131.935 61.2422 131.875 61.8203 131.875H63.5ZM72.4453 128.547H73.7578V136.82C73.7578 137.565 73.6068 138.201 73.3047 138.727C73.0026 139.253 72.5807 139.651 72.0391 139.922C71.5026 140.198 70.8828 140.336 70.1797 140.336C69.888 140.336 69.5443 140.289 69.1484 140.195C68.7578 140.107 68.3724 139.953 67.9922 139.734C67.6172 139.521 67.3021 139.232 67.0469 138.867L67.8047 138.008C68.1589 138.435 68.5286 138.732 68.9141 138.898C69.3047 139.065 69.6901 139.148 70.0703 139.148C70.5286 139.148 70.9245 139.062 71.2578 138.891C71.5911 138.719 71.849 138.464 72.0312 138.125C72.2188 137.792 72.3125 137.38 72.3125 136.891V130.406L72.4453 128.547ZM66.625 132.867V132.703C66.625 132.057 66.7005 131.471 66.8516 130.945C67.0078 130.414 67.2292 129.958 67.5156 129.578C67.8073 129.198 68.1589 128.906 68.5703 128.703C68.9818 128.495 69.4453 128.391 69.9609 128.391C70.4922 128.391 70.9557 128.484 71.3516 128.672C71.7526 128.854 72.0911 129.122 72.3672 129.477C72.6484 129.826 72.8698 130.247 73.0312 130.742C73.1927 131.237 73.3047 131.797 73.3672 132.422V133.141C73.3099 133.76 73.1979 134.318 73.0312 134.812C72.8698 135.307 72.6484 135.729 72.3672 136.078C72.0911 136.427 71.7526 136.695 71.3516 136.883C70.9505 137.065 70.4818 137.156 69.9453 137.156C69.4401 137.156 68.9818 137.049 68.5703 136.836C68.1641 136.622 67.8151 136.323 67.5234 135.938C67.2318 135.552 67.0078 135.099 66.8516 134.578C66.7005 134.052 66.625 133.482 66.625 132.867ZM68.0703 132.703V132.867C68.0703 133.289 68.112 133.685 68.1953 134.055C68.2839 134.424 68.4167 134.75 68.5938 135.031C68.776 135.312 69.0078 135.534 69.2891 135.695C69.5703 135.852 69.9062 135.93 70.2969 135.93C70.776 135.93 71.1719 135.828 71.4844 135.625C71.7969 135.422 72.0443 135.154 72.2266 134.82C72.4141 134.487 72.5599 134.125 72.6641 133.734V131.852C72.6068 131.565 72.5182 131.289 72.3984 131.023C72.2839 130.753 72.1328 130.513 71.9453 130.305C71.763 130.091 71.5365 129.922 71.2656 129.797C70.9948 129.672 70.6771 129.609 70.3125 129.609C69.9167 129.609 69.5755 129.693 69.2891 129.859C69.0078 130.021 68.776 130.245 68.5938 130.531C68.4167 130.812 68.2839 131.141 68.1953 131.516C68.112 131.885 68.0703 132.281 68.0703 132.703ZM82.0234 130.688L83.7266 129.477C84.0547 129.253 84.3073 129.029 84.4844 128.805C84.6667 128.576 84.7578 128.263 84.7578 127.867C84.7578 127.56 84.638 127.281 84.3984 127.031C84.1589 126.776 83.8203 126.648 83.3828 126.648C83.0807 126.648 82.8255 126.719 82.6172 126.859C82.4089 127 82.2526 127.188 82.1484 127.422C82.0443 127.651 81.9922 127.904 81.9922 128.18C81.9922 128.414 82.0495 128.656 82.1641 128.906C82.2786 129.156 82.4375 129.417 82.6406 129.688C82.8438 129.958 83.0755 130.245 83.3359 130.547L88.7188 137H86.9844L82.5703 131.719C82.1797 131.26 81.8307 130.841 81.5234 130.461C81.2161 130.076 80.974 129.703 80.7969 129.344C80.625 128.984 80.5391 128.612 80.5391 128.227C80.5391 127.633 80.6562 127.133 80.8906 126.727C81.1302 126.315 81.4635 126.003 81.8906 125.789C82.3177 125.576 82.8177 125.469 83.3906 125.469C83.9479 125.469 84.4271 125.581 84.8281 125.805C85.2344 126.023 85.5469 126.315 85.7656 126.68C85.9844 127.039 86.0938 127.435 86.0938 127.867C86.0938 128.232 86.0286 128.56 85.8984 128.852C85.7682 129.138 85.5859 129.401 85.3516 129.641C85.1224 129.88 84.8542 130.115 84.5469 130.344L82.2891 132.023C81.9141 132.299 81.6406 132.562 81.4688 132.812C81.2969 133.062 81.1849 133.284 81.1328 133.477C81.0859 133.669 81.0625 133.823 81.0625 133.938C81.0625 134.307 81.1432 134.646 81.3047 134.953C81.4661 135.26 81.7109 135.508 82.0391 135.695C82.3724 135.878 82.7891 135.969 83.2891 135.969C83.7266 135.969 84.151 135.87 84.5625 135.672C84.9792 135.469 85.3516 135.182 85.6797 134.812C86.0078 134.438 86.2682 133.992 86.4609 133.477C86.6589 132.956 86.7578 132.38 86.7578 131.75H88.0547C88.0547 132.266 88.0052 132.753 87.9062 133.211C87.8073 133.669 87.6536 134.096 87.4453 134.492C87.2422 134.883 86.9818 135.24 86.6641 135.562C86.6172 135.609 86.5807 135.664 86.5547 135.727C86.5286 135.789 86.4922 135.844 86.4453 135.891C86.0547 136.312 85.5729 136.63 85 136.844C84.4323 137.052 83.862 137.156 83.2891 137.156C82.5339 137.156 81.8802 137.018 81.3281 136.742C80.7812 136.466 80.3594 136.086 80.0625 135.602C79.7656 135.117 79.6172 134.562 79.6172 133.938C79.6172 133.458 79.7188 133.036 79.9219 132.672C80.1302 132.307 80.4141 131.966 80.7734 131.648C81.138 131.331 81.5547 131.01 82.0234 130.688ZM99.1719 135.359V125H100.625V137H99.2969L99.1719 135.359ZM93.4844 132.867V132.703C93.4844 132.057 93.5625 131.471 93.7188 130.945C93.8802 130.414 94.1068 129.958 94.3984 129.578C94.6953 129.198 95.0469 128.906 95.4531 128.703C95.8646 128.495 96.3229 128.391 96.8281 128.391C97.3594 128.391 97.8229 128.484 98.2188 128.672C98.6198 128.854 98.9583 129.122 99.2344 129.477C99.5156 129.826 99.737 130.247 99.8984 130.742C100.06 131.237 100.172 131.797 100.234 132.422V133.141C100.177 133.76 100.065 134.318 99.8984 134.812C99.737 135.307 99.5156 135.729 99.2344 136.078C98.9583 136.427 98.6198 136.695 98.2188 136.883C97.8177 137.065 97.349 137.156 96.8125 137.156C96.3177 137.156 95.8646 137.049 95.4531 136.836C95.0469 136.622 94.6953 136.323 94.3984 135.938C94.1068 135.552 93.8802 135.099 93.7188 134.578C93.5625 134.052 93.4844 133.482 93.4844 132.867ZM94.9375 132.703V132.867C94.9375 133.289 94.9792 133.685 95.0625 134.055C95.151 134.424 95.2865 134.75 95.4688 135.031C95.651 135.312 95.8828 135.534 96.1641 135.695C96.4453 135.852 96.7812 135.93 97.1719 135.93C97.651 135.93 98.0443 135.828 98.3516 135.625C98.6641 135.422 98.9141 135.154 99.1016 134.82C99.2891 134.487 99.4349 134.125 99.5391 133.734V131.852C99.4766 131.565 99.3854 131.289 99.2656 131.023C99.151 130.753 99 130.513 98.8125 130.305C98.6302 130.091 98.4036 129.922 98.1328 129.797C97.8672 129.672 97.5521 129.609 97.1875 129.609C96.7917 129.609 96.4505 129.693 96.1641 129.859C95.8828 130.021 95.651 130.245 95.4688 130.531C95.2865 130.812 95.151 131.141 95.0625 131.516C94.9792 131.885 94.9375 132.281 94.9375 132.703ZM104.32 129.875V137H102.875V128.547H104.281L104.32 129.875ZM106.961 128.5L106.953 129.844C106.833 129.818 106.719 129.802 106.609 129.797C106.505 129.786 106.385 129.781 106.25 129.781C105.917 129.781 105.622 129.833 105.367 129.938C105.112 130.042 104.896 130.188 104.719 130.375C104.542 130.562 104.401 130.786 104.297 131.047C104.198 131.302 104.133 131.583 104.102 131.891L103.695 132.125C103.695 131.615 103.745 131.135 103.844 130.688C103.948 130.24 104.107 129.844 104.32 129.5C104.534 129.151 104.805 128.88 105.133 128.688C105.466 128.49 105.862 128.391 106.32 128.391C106.424 128.391 106.544 128.404 106.68 128.43C106.815 128.451 106.909 128.474 106.961 128.5ZM107.758 132.867V132.688C107.758 132.078 107.846 131.513 108.023 130.992C108.201 130.466 108.456 130.01 108.789 129.625C109.122 129.234 109.526 128.932 110 128.719C110.474 128.5 111.005 128.391 111.594 128.391C112.188 128.391 112.721 128.5 113.195 128.719C113.674 128.932 114.081 129.234 114.414 129.625C114.753 130.01 115.01 130.466 115.188 130.992C115.365 131.513 115.453 132.078 115.453 132.688V132.867C115.453 133.477 115.365 134.042 115.188 134.562C115.01 135.083 114.753 135.539 114.414 135.93C114.081 136.315 113.677 136.617 113.203 136.836C112.734 137.049 112.203 137.156 111.609 137.156C111.016 137.156 110.482 137.049 110.008 136.836C109.534 136.617 109.128 136.315 108.789 135.93C108.456 135.539 108.201 135.083 108.023 134.562C107.846 134.042 107.758 133.477 107.758 132.867ZM109.203 132.688V132.867C109.203 133.289 109.253 133.688 109.352 134.062C109.451 134.432 109.599 134.76 109.797 135.047C110 135.333 110.253 135.56 110.555 135.727C110.857 135.888 111.208 135.969 111.609 135.969C112.005 135.969 112.352 135.888 112.648 135.727C112.951 135.56 113.201 135.333 113.398 135.047C113.596 134.76 113.745 134.432 113.844 134.062C113.948 133.688 114 133.289 114 132.867V132.688C114 132.271 113.948 131.878 113.844 131.508C113.745 131.133 113.594 130.802 113.391 130.516C113.193 130.224 112.943 129.995 112.641 129.828C112.344 129.661 111.995 129.578 111.594 129.578C111.198 129.578 110.849 129.661 110.547 129.828C110.25 129.995 110 130.224 109.797 130.516C109.599 130.802 109.451 131.133 109.352 131.508C109.253 131.878 109.203 132.271 109.203 132.688ZM118.711 130.172V140.25H117.258V128.547H118.586L118.711 130.172ZM124.406 132.703V132.867C124.406 133.482 124.333 134.052 124.188 134.578C124.042 135.099 123.828 135.552 123.547 135.938C123.271 136.323 122.93 136.622 122.523 136.836C122.117 137.049 121.651 137.156 121.125 137.156C120.589 137.156 120.115 137.068 119.703 136.891C119.292 136.714 118.943 136.456 118.656 136.117C118.37 135.779 118.141 135.372 117.969 134.898C117.802 134.424 117.688 133.891 117.625 133.297V132.422C117.688 131.797 117.805 131.237 117.977 130.742C118.148 130.247 118.375 129.826 118.656 129.477C118.943 129.122 119.289 128.854 119.695 128.672C120.102 128.484 120.57 128.391 121.102 128.391C121.633 128.391 122.104 128.495 122.516 128.703C122.927 128.906 123.273 129.198 123.555 129.578C123.836 129.958 124.047 130.414 124.188 130.945C124.333 131.471 124.406 132.057 124.406 132.703ZM122.953 132.867V132.703C122.953 132.281 122.909 131.885 122.82 131.516C122.732 131.141 122.594 130.812 122.406 130.531C122.224 130.245 121.99 130.021 121.703 129.859C121.417 129.693 121.076 129.609 120.68 129.609C120.315 129.609 119.997 129.672 119.727 129.797C119.461 129.922 119.234 130.091 119.047 130.305C118.859 130.513 118.706 130.753 118.586 131.023C118.471 131.289 118.385 131.565 118.328 131.852V133.875C118.432 134.24 118.578 134.583 118.766 134.906C118.953 135.224 119.203 135.482 119.516 135.68C119.828 135.872 120.221 135.969 120.695 135.969C121.086 135.969 121.422 135.888 121.703 135.727C121.99 135.56 122.224 135.333 122.406 135.047C122.594 134.76 122.732 134.432 122.82 134.062C122.909 133.688 122.953 133.289 122.953 132.867ZM129.836 132.867V132.688C129.836 132.078 129.924 131.513 130.102 130.992C130.279 130.466 130.534 130.01 130.867 129.625C131.201 129.234 131.604 128.932 132.078 128.719C132.552 128.5 133.083 128.391 133.672 128.391C134.266 128.391 134.799 128.5 135.273 128.719C135.753 128.932 136.159 129.234 136.492 129.625C136.831 130.01 137.089 130.466 137.266 130.992C137.443 131.513 137.531 132.078 137.531 132.688V132.867C137.531 133.477 137.443 134.042 137.266 134.562C137.089 135.083 136.831 135.539 136.492 135.93C136.159 136.315 135.755 136.617 135.281 136.836C134.812 137.049 134.281 137.156 133.688 137.156C133.094 137.156 132.56 137.049 132.086 136.836C131.612 136.617 131.206 136.315 130.867 135.93C130.534 135.539 130.279 135.083 130.102 134.562C129.924 134.042 129.836 133.477 129.836 132.867ZM131.281 132.688V132.867C131.281 133.289 131.331 133.688 131.43 134.062C131.529 134.432 131.677 134.76 131.875 135.047C132.078 135.333 132.331 135.56 132.633 135.727C132.935 135.888 133.286 135.969 133.688 135.969C134.083 135.969 134.43 135.888 134.727 135.727C135.029 135.56 135.279 135.333 135.477 135.047C135.674 134.76 135.823 134.432 135.922 134.062C136.026 133.688 136.078 133.289 136.078 132.867V132.688C136.078 132.271 136.026 131.878 135.922 131.508C135.823 131.133 135.672 130.802 135.469 130.516C135.271 130.224 135.021 129.995 134.719 129.828C134.422 129.661 134.073 129.578 133.672 129.578C133.276 129.578 132.927 129.661 132.625 129.828C132.328 129.995 132.078 130.224 131.875 130.516C131.677 130.802 131.529 131.133 131.43 131.508C131.331 131.878 131.281 132.271 131.281 132.688ZM140.789 129.875V137H139.344V128.547H140.75L140.789 129.875ZM143.43 128.5L143.422 129.844C143.302 129.818 143.188 129.802 143.078 129.797C142.974 129.786 142.854 129.781 142.719 129.781C142.385 129.781 142.091 129.833 141.836 129.938C141.581 130.042 141.365 130.188 141.188 130.375C141.01 130.562 140.87 130.786 140.766 131.047C140.667 131.302 140.602 131.583 140.57 131.891L140.164 132.125C140.164 131.615 140.214 131.135 140.312 130.688C140.417 130.24 140.576 129.844 140.789 129.5C141.003 129.151 141.273 128.88 141.602 128.688C141.935 128.49 142.331 128.391 142.789 128.391C142.893 128.391 143.013 128.404 143.148 128.43C143.284 128.451 143.378 128.474 143.43 128.5ZM152.117 135.969C152.461 135.969 152.779 135.898 153.07 135.758C153.362 135.617 153.602 135.424 153.789 135.18C153.977 134.93 154.083 134.646 154.109 134.328H155.484C155.458 134.828 155.289 135.294 154.977 135.727C154.669 136.154 154.266 136.5 153.766 136.766C153.266 137.026 152.716 137.156 152.117 137.156C151.482 137.156 150.927 137.044 150.453 136.82C149.984 136.596 149.594 136.289 149.281 135.898C148.974 135.508 148.742 135.06 148.586 134.555C148.435 134.044 148.359 133.505 148.359 132.938V132.609C148.359 132.042 148.435 131.505 148.586 131C148.742 130.49 148.974 130.039 149.281 129.648C149.594 129.258 149.984 128.951 150.453 128.727C150.927 128.503 151.482 128.391 152.117 128.391C152.779 128.391 153.357 128.526 153.852 128.797C154.346 129.062 154.734 129.427 155.016 129.891C155.302 130.349 155.458 130.87 155.484 131.453H154.109C154.083 131.104 153.984 130.789 153.812 130.508C153.646 130.227 153.417 130.003 153.125 129.836C152.839 129.664 152.503 129.578 152.117 129.578C151.674 129.578 151.302 129.667 151 129.844C150.703 130.016 150.466 130.25 150.289 130.547C150.117 130.839 149.992 131.164 149.914 131.523C149.841 131.878 149.805 132.24 149.805 132.609V132.938C149.805 133.307 149.841 133.672 149.914 134.031C149.987 134.391 150.109 134.716 150.281 135.008C150.458 135.299 150.695 135.534 150.992 135.711C151.294 135.883 151.669 135.969 152.117 135.969ZM158.68 125V137H157.227V125H158.68ZM162.57 128.547V137H161.117V128.547H162.57ZM161.008 126.305C161.008 126.07 161.078 125.872 161.219 125.711C161.365 125.549 161.578 125.469 161.859 125.469C162.135 125.469 162.346 125.549 162.492 125.711C162.643 125.872 162.719 126.07 162.719 126.305C162.719 126.529 162.643 126.721 162.492 126.883C162.346 127.039 162.135 127.117 161.859 127.117C161.578 127.117 161.365 127.039 161.219 126.883C161.078 126.721 161.008 126.529 161.008 126.305ZM168.273 135.969C168.617 135.969 168.935 135.898 169.227 135.758C169.518 135.617 169.758 135.424 169.945 135.18C170.133 134.93 170.24 134.646 170.266 134.328H171.641C171.615 134.828 171.445 135.294 171.133 135.727C170.826 136.154 170.422 136.5 169.922 136.766C169.422 137.026 168.872 137.156 168.273 137.156C167.638 137.156 167.083 137.044 166.609 136.82C166.141 136.596 165.75 136.289 165.438 135.898C165.13 135.508 164.898 135.06 164.742 134.555C164.591 134.044 164.516 133.505 164.516 132.938V132.609C164.516 132.042 164.591 131.505 164.742 131C164.898 130.49 165.13 130.039 165.438 129.648C165.75 129.258 166.141 128.951 166.609 128.727C167.083 128.503 167.638 128.391 168.273 128.391C168.935 128.391 169.513 128.526 170.008 128.797C170.503 129.062 170.891 129.427 171.172 129.891C171.458 130.349 171.615 130.87 171.641 131.453H170.266C170.24 131.104 170.141 130.789 169.969 130.508C169.802 130.227 169.573 130.003 169.281 129.836C168.995 129.664 168.659 129.578 168.273 129.578C167.831 129.578 167.458 129.667 167.156 129.844C166.859 130.016 166.622 130.25 166.445 130.547C166.273 130.839 166.148 131.164 166.07 131.523C165.997 131.878 165.961 132.24 165.961 132.609V132.938C165.961 133.307 165.997 133.672 166.07 134.031C166.143 134.391 166.266 134.716 166.438 135.008C166.615 135.299 166.852 135.534 167.148 135.711C167.451 135.883 167.826 135.969 168.273 135.969ZM174.719 125V137H173.266V125H174.719ZM179.883 128.547L176.195 132.492L174.133 134.633L174.016 133.094L175.492 131.328L178.117 128.547H179.883ZM178.562 137L175.547 132.969L176.297 131.68L180.266 137H178.562ZM188.883 128.547V129.656H184.312V128.547H188.883ZM185.859 126.492H187.305V134.906C187.305 135.193 187.349 135.409 187.438 135.555C187.526 135.701 187.641 135.797 187.781 135.844C187.922 135.891 188.073 135.914 188.234 135.914C188.354 135.914 188.479 135.904 188.609 135.883C188.745 135.857 188.846 135.836 188.914 135.82L188.922 137C188.807 137.036 188.656 137.07 188.469 137.102C188.286 137.138 188.065 137.156 187.805 137.156C187.451 137.156 187.125 137.086 186.828 136.945C186.531 136.805 186.294 136.57 186.117 136.242C185.945 135.909 185.859 135.461 185.859 134.898V126.492ZM190.039 132.867V132.688C190.039 132.078 190.128 131.513 190.305 130.992C190.482 130.466 190.737 130.01 191.07 129.625C191.404 129.234 191.807 128.932 192.281 128.719C192.755 128.5 193.286 128.391 193.875 128.391C194.469 128.391 195.003 128.5 195.477 128.719C195.956 128.932 196.362 129.234 196.695 129.625C197.034 130.01 197.292 130.466 197.469 130.992C197.646 131.513 197.734 132.078 197.734 132.688V132.867C197.734 133.477 197.646 134.042 197.469 134.562C197.292 135.083 197.034 135.539 196.695 135.93C196.362 136.315 195.958 136.617 195.484 136.836C195.016 137.049 194.484 137.156 193.891 137.156C193.297 137.156 192.763 137.049 192.289 136.836C191.815 136.617 191.409 136.315 191.07 135.93C190.737 135.539 190.482 135.083 190.305 134.562C190.128 134.042 190.039 133.477 190.039 132.867ZM191.484 132.688V132.867C191.484 133.289 191.534 133.688 191.633 134.062C191.732 134.432 191.88 134.76 192.078 135.047C192.281 135.333 192.534 135.56 192.836 135.727C193.138 135.888 193.49 135.969 193.891 135.969C194.286 135.969 194.633 135.888 194.93 135.727C195.232 135.56 195.482 135.333 195.68 135.047C195.878 134.76 196.026 134.432 196.125 134.062C196.229 133.688 196.281 133.289 196.281 132.867V132.688C196.281 132.271 196.229 131.878 196.125 131.508C196.026 131.133 195.875 130.802 195.672 130.516C195.474 130.224 195.224 129.995 194.922 129.828C194.625 129.661 194.276 129.578 193.875 129.578C193.479 129.578 193.13 129.661 192.828 129.828C192.531 129.995 192.281 130.224 192.078 130.516C191.88 130.802 191.732 131.133 191.633 131.508C191.534 131.878 191.484 132.271 191.484 132.688ZM101.992 159.047V152.547H103.445V161H102.062L101.992 159.047ZM102.266 157.266L102.867 157.25C102.867 157.812 102.807 158.333 102.688 158.812C102.573 159.286 102.385 159.698 102.125 160.047C101.865 160.396 101.523 160.669 101.102 160.867C100.68 161.06 100.167 161.156 99.5625 161.156C99.151 161.156 98.7734 161.096 98.4297 160.977C98.0911 160.857 97.7995 160.672 97.5547 160.422C97.3099 160.172 97.1198 159.846 96.9844 159.445C96.8542 159.044 96.7891 158.562 96.7891 158V152.547H98.2344V158.016C98.2344 158.396 98.276 158.711 98.3594 158.961C98.4479 159.206 98.5651 159.401 98.7109 159.547C98.862 159.688 99.0286 159.786 99.2109 159.844C99.3984 159.901 99.5911 159.93 99.7891 159.93C100.404 159.93 100.891 159.812 101.25 159.578C101.609 159.339 101.867 159.018 102.023 158.617C102.185 158.211 102.266 157.76 102.266 157.266ZM107.094 154.172V164.25H105.641V152.547H106.969L107.094 154.172ZM112.789 156.703V156.867C112.789 157.482 112.716 158.052 112.57 158.578C112.424 159.099 112.211 159.552 111.93 159.938C111.654 160.323 111.312 160.622 110.906 160.836C110.5 161.049 110.034 161.156 109.508 161.156C108.971 161.156 108.497 161.068 108.086 160.891C107.674 160.714 107.326 160.456 107.039 160.117C106.753 159.779 106.523 159.372 106.352 158.898C106.185 158.424 106.07 157.891 106.008 157.297V156.422C106.07 155.797 106.188 155.237 106.359 154.742C106.531 154.247 106.758 153.826 107.039 153.477C107.326 153.122 107.672 152.854 108.078 152.672C108.484 152.484 108.953 152.391 109.484 152.391C110.016 152.391 110.487 152.495 110.898 152.703C111.31 152.906 111.656 153.198 111.938 153.578C112.219 153.958 112.43 154.414 112.57 154.945C112.716 155.471 112.789 156.057 112.789 156.703ZM111.336 156.867V156.703C111.336 156.281 111.292 155.885 111.203 155.516C111.115 155.141 110.977 154.812 110.789 154.531C110.607 154.245 110.372 154.021 110.086 153.859C109.799 153.693 109.458 153.609 109.062 153.609C108.698 153.609 108.38 153.672 108.109 153.797C107.844 153.922 107.617 154.091 107.43 154.305C107.242 154.513 107.089 154.753 106.969 155.023C106.854 155.289 106.768 155.565 106.711 155.852V157.875C106.815 158.24 106.961 158.583 107.148 158.906C107.336 159.224 107.586 159.482 107.898 159.68C108.211 159.872 108.604 159.969 109.078 159.969C109.469 159.969 109.805 159.888 110.086 159.727C110.372 159.56 110.607 159.333 110.789 159.047C110.977 158.76 111.115 158.432 111.203 158.062C111.292 157.688 111.336 157.289 111.336 156.867ZM116.203 149V161H114.75V149H116.203ZM118.141 156.867V156.688C118.141 156.078 118.229 155.513 118.406 154.992C118.583 154.466 118.839 154.01 119.172 153.625C119.505 153.234 119.909 152.932 120.383 152.719C120.857 152.5 121.388 152.391 121.977 152.391C122.57 152.391 123.104 152.5 123.578 152.719C124.057 152.932 124.464 153.234 124.797 153.625C125.135 154.01 125.393 154.466 125.57 154.992C125.747 155.513 125.836 156.078 125.836 156.688V156.867C125.836 157.477 125.747 158.042 125.57 158.562C125.393 159.083 125.135 159.539 124.797 159.93C124.464 160.315 124.06 160.617 123.586 160.836C123.117 161.049 122.586 161.156 121.992 161.156C121.398 161.156 120.865 161.049 120.391 160.836C119.917 160.617 119.51 160.315 119.172 159.93C118.839 159.539 118.583 159.083 118.406 158.562C118.229 158.042 118.141 157.477 118.141 156.867ZM119.586 156.688V156.867C119.586 157.289 119.635 157.688 119.734 158.062C119.833 158.432 119.982 158.76 120.18 159.047C120.383 159.333 120.635 159.56 120.938 159.727C121.24 159.888 121.591 159.969 121.992 159.969C122.388 159.969 122.734 159.888 123.031 159.727C123.333 159.56 123.583 159.333 123.781 159.047C123.979 158.76 124.128 158.432 124.227 158.062C124.331 157.688 124.383 157.289 124.383 156.867V156.688C124.383 156.271 124.331 155.878 124.227 155.508C124.128 155.133 123.977 154.802 123.773 154.516C123.576 154.224 123.326 153.995 123.023 153.828C122.727 153.661 122.378 153.578 121.977 153.578C121.581 153.578 121.232 153.661 120.93 153.828C120.633 153.995 120.383 154.224 120.18 154.516C119.982 154.802 119.833 155.133 119.734 155.508C119.635 155.878 119.586 156.271 119.586 156.688ZM132.633 159.555V155.203C132.633 154.87 132.565 154.581 132.43 154.336C132.299 154.086 132.102 153.893 131.836 153.758C131.57 153.622 131.242 153.555 130.852 153.555C130.487 153.555 130.167 153.617 129.891 153.742C129.62 153.867 129.406 154.031 129.25 154.234C129.099 154.438 129.023 154.656 129.023 154.891H127.578C127.578 154.589 127.656 154.289 127.812 153.992C127.969 153.695 128.193 153.427 128.484 153.188C128.781 152.943 129.135 152.75 129.547 152.609C129.964 152.464 130.427 152.391 130.938 152.391C131.552 152.391 132.094 152.495 132.562 152.703C133.036 152.911 133.406 153.227 133.672 153.648C133.943 154.065 134.078 154.589 134.078 155.219V159.156C134.078 159.438 134.102 159.737 134.148 160.055C134.201 160.372 134.276 160.646 134.375 160.875V161H132.867C132.794 160.833 132.737 160.612 132.695 160.336C132.654 160.055 132.633 159.794 132.633 159.555ZM132.883 155.875L132.898 156.891H131.438C131.026 156.891 130.659 156.924 130.336 156.992C130.013 157.055 129.742 157.151 129.523 157.281C129.305 157.411 129.138 157.576 129.023 157.773C128.909 157.966 128.852 158.193 128.852 158.453C128.852 158.719 128.911 158.961 129.031 159.18C129.151 159.398 129.331 159.573 129.57 159.703C129.815 159.828 130.115 159.891 130.469 159.891C130.911 159.891 131.302 159.797 131.641 159.609C131.979 159.422 132.247 159.193 132.445 158.922C132.648 158.651 132.758 158.388 132.773 158.133L133.391 158.828C133.354 159.047 133.255 159.289 133.094 159.555C132.932 159.82 132.716 160.076 132.445 160.32C132.18 160.56 131.862 160.76 131.492 160.922C131.128 161.078 130.716 161.156 130.258 161.156C129.685 161.156 129.182 161.044 128.75 160.82C128.323 160.596 127.99 160.297 127.75 159.922C127.516 159.542 127.398 159.117 127.398 158.648C127.398 158.195 127.487 157.797 127.664 157.453C127.841 157.104 128.096 156.815 128.43 156.586C128.763 156.352 129.164 156.174 129.633 156.055C130.102 155.935 130.625 155.875 131.203 155.875H132.883ZM141.68 159.359V149H143.133V161H141.805L141.68 159.359ZM135.992 156.867V156.703C135.992 156.057 136.07 155.471 136.227 154.945C136.388 154.414 136.615 153.958 136.906 153.578C137.203 153.198 137.555 152.906 137.961 152.703C138.372 152.495 138.831 152.391 139.336 152.391C139.867 152.391 140.331 152.484 140.727 152.672C141.128 152.854 141.466 153.122 141.742 153.477C142.023 153.826 142.245 154.247 142.406 154.742C142.568 155.237 142.68 155.797 142.742 156.422V157.141C142.685 157.76 142.573 158.318 142.406 158.812C142.245 159.307 142.023 159.729 141.742 160.078C141.466 160.427 141.128 160.695 140.727 160.883C140.326 161.065 139.857 161.156 139.32 161.156C138.826 161.156 138.372 161.049 137.961 160.836C137.555 160.622 137.203 160.323 136.906 159.938C136.615 159.552 136.388 159.099 136.227 158.578C136.07 158.052 135.992 157.482 135.992 156.867ZM137.445 156.703V156.867C137.445 157.289 137.487 157.685 137.57 158.055C137.659 158.424 137.794 158.75 137.977 159.031C138.159 159.312 138.391 159.534 138.672 159.695C138.953 159.852 139.289 159.93 139.68 159.93C140.159 159.93 140.552 159.828 140.859 159.625C141.172 159.422 141.422 159.154 141.609 158.82C141.797 158.487 141.943 158.125 142.047 157.734V155.852C141.984 155.565 141.893 155.289 141.773 155.023C141.659 154.753 141.508 154.513 141.32 154.305C141.138 154.091 140.911 153.922 140.641 153.797C140.375 153.672 140.06 153.609 139.695 153.609C139.299 153.609 138.958 153.693 138.672 153.859C138.391 154.021 138.159 154.245 137.977 154.531C137.794 154.812 137.659 155.141 137.57 155.516C137.487 155.885 137.445 156.281 137.445 156.703Z" fill="#FAFAFA"/>
</svg>
